<svg xmlns="http://www.w3.org/2000/svg" width="518" height="220" viewBox="0 0 518 220">
<rect width="518" height="220" fill="#0d1117"/>
<defs><marker id="arrow" viewBox="0 0 10 10" refX="9" refY="5" markerWidth="7" markerHeight="7" orient="auto-start-reverse"><path d="M 0 0 L 10 5 L 0 10 z" fill="#2f81f7"/></marker></defs>
<line x1="394.0" y1="110.0" x2="394.0" y2="110.0" stroke="#2f81f7" stroke-width="1.5" opacity="0.8" marker-end="url(#arrow)"/>
<line x1="294.0" y1="97.8" x2="224.0" y2="89.2" stroke="#2f81f7" stroke-width="1.5" opacity="0.8" marker-end="url(#arrow)"/>
<rect x="24" y="24" width="200" height="106" rx="8" fill="#161b22" stroke="#2d333b"/>
<path d="M 32 24 h 184 a 8 8 0 0 1 8 8 v 22 h -200 v -22 a 8 8 0 0 1 8 -8 z" fill="#1f6feb"/>
<text x="34" y="44" fill="#fff" font-size="13" font-weight="700" font-family="monospace">departments</text>
<text x="34" y="69" fill="#f0c674" font-size="12" font-family="monospace">🔑 id</text>
<text x="214" y="69" fill="#8b949e" font-size="11" font-family="monospace" text-anchor="end">INTEGER</text>
<text x="34" y="91" fill="#e6edf3" font-size="12" font-family="monospace">name</text>
<text x="214" y="91" fill="#8b949e" font-size="11" font-family="monospace" text-anchor="end">TEXT</text>
<text x="34" y="113" fill="#e6edf3" font-size="12" font-family="monospace">budget</text>
<text x="214" y="113" fill="#8b949e" font-size="11" font-family="monospace" text-anchor="end">INTEGER</text>
<rect x="294" y="24" width="200" height="172" rx="8" fill="#161b22" stroke="#2d333b"/>
<path d="M 302 24 h 184 a 8 8 0 0 1 8 8 v 22 h -200 v -22 a 8 8 0 0 1 8 -8 z" fill="#1f6feb"/>
<text x="304" y="44" fill="#fff" font-size="13" font-weight="700" font-family="monospace">employees</text>
<text x="304" y="69" fill="#f0c674" font-size="12" font-family="monospace">🔑 id</text>
<text x="484" y="69" fill="#8b949e" font-size="11" font-family="monospace" text-anchor="end">INTEGER</text>
<text x="304" y="91" fill="#e6edf3" font-size="12" font-family="monospace">name</text>
<text x="484" y="91" fill="#8b949e" font-size="11" font-family="monospace" text-anchor="end">TEXT</text>
<text x="304" y="113" fill="#e6edf3" font-size="12" font-family="monospace">↪ dept_id</text>
<text x="484" y="113" fill="#8b949e" font-size="11" font-family="monospace" text-anchor="end">INTEGER</text>
<text x="304" y="135" fill="#e6edf3" font-size="12" font-family="monospace">↪ manager_id</text>
<text x="484" y="135" fill="#8b949e" font-size="11" font-family="monospace" text-anchor="end">INTEGER</text>
<text x="304" y="157" fill="#e6edf3" font-size="12" font-family="monospace">salary</text>
<text x="484" y="157" fill="#8b949e" font-size="11" font-family="monospace" text-anchor="end">INTEGER</text>
<text x="304" y="179" fill="#e6edf3" font-size="12" font-family="monospace">hired_on</text>
<text x="484" y="179" fill="#8b949e" font-size="11" font-family="monospace" text-anchor="end">TEXT</text>
</svg>