<svg xmlns="http://www.w3.org/2000/svg" width="518" height="381" viewBox="0 0 518 381">
<rect width="518" height="381" fill="#0d1117"/>
<defs><marker id="arrow" viewBox="0 0 10 10" refX="9" refY="5" markerWidth="7" markerHeight="7" orient="auto-start-reverse"><path d="M 0 0 L 10 5 L 0 10 z" fill="#2f81f7"/></marker></defs>
<line x1="294.0" y1="88.0" x2="224.0" y2="88.0" stroke="#2f81f7" stroke-width="1.5" opacity="0.8" marker-end="url(#arrow)"/>
<line x1="304.9" y1="152.0" x2="224.0" y2="210.1" stroke="#2f81f7" stroke-width="1.5" opacity="0.8" marker-end="url(#arrow)"/>
<rect x="24" y="24" width="200" height="128" rx="8" fill="#161b22" stroke="#2d333b"/>
<path d="M 32 24 h 184 a 8 8 0 0 1 8 8 v 22 h -200 v -22 a 8 8 0 0 1 8 -8 z" fill="#1f6feb"/>
<text x="34" y="44" fill="#fff" font-size="13" font-weight="700" font-family="monospace">courses</text>
<text x="34" y="69" fill="#f0c674" font-size="12" font-family="monospace">🔑 id</text>
<text x="214" y="69" fill="#8b949e" font-size="11" font-family="monospace" text-anchor="end">INTEGER</text>
<text x="34" y="91" fill="#e6edf3" font-size="12" font-family="monospace">title</text>
<text x="214" y="91" fill="#8b949e" font-size="11" font-family="monospace" text-anchor="end">TEXT</text>
<text x="34" y="113" fill="#e6edf3" font-size="12" font-family="monospace">department</text>
<text x="214" y="113" fill="#8b949e" font-size="11" font-family="monospace" text-anchor="end">TEXT</text>
<text x="34" y="135" fill="#e6edf3" font-size="12" font-family="monospace">credits</text>
<text x="214" y="135" fill="#8b949e" font-size="11" font-family="monospace" text-anchor="end">INTEGER</text>
<rect x="294" y="24" width="200" height="128" rx="8" fill="#161b22" stroke="#2d333b"/>
<path d="M 302 24 h 184 a 8 8 0 0 1 8 8 v 22 h -200 v -22 a 8 8 0 0 1 8 -8 z" fill="#1f6feb"/>
<text x="304" y="44" fill="#fff" font-size="13" font-weight="700" font-family="monospace">enrollments</text>
<text x="304" y="69" fill="#e6edf3" font-size="12" font-family="monospace">↪ student_id</text>
<text x="484" y="69" fill="#8b949e" font-size="11" font-family="monospace" text-anchor="end">INTEGER</text>
<text x="304" y="91" fill="#e6edf3" font-size="12" font-family="monospace">↪ course_id</text>
<text x="484" y="91" fill="#8b949e" font-size="11" font-family="monospace" text-anchor="end">INTEGER</text>
<text x="304" y="113" fill="#e6edf3" font-size="12" font-family="monospace">semester</text>
<text x="484" y="113" fill="#8b949e" font-size="11" font-family="monospace" text-anchor="end">TEXT</text>
<text x="304" y="135" fill="#e6edf3" font-size="12" font-family="monospace">score</text>
<text x="484" y="135" fill="#8b949e" font-size="11" font-family="monospace" text-anchor="end">INTEGER</text>
<rect x="24" y="207" width="200" height="150" rx="8" fill="#161b22" stroke="#2d333b"/>
<path d="M 32 207 h 184 a 8 8 0 0 1 8 8 v 22 h -200 v -22 a 8 8 0 0 1 8 -8 z" fill="#1f6feb"/>
<text x="34" y="227" fill="#fff" font-size="13" font-weight="700" font-family="monospace">students</text>
<text x="34" y="252" fill="#f0c674" font-size="12" font-family="monospace">🔑 id</text>
<text x="214" y="252" fill="#8b949e" font-size="11" font-family="monospace" text-anchor="end">INTEGER</text>
<text x="34" y="274" fill="#e6edf3" font-size="12" font-family="monospace">name</text>
<text x="214" y="274" fill="#8b949e" font-size="11" font-family="monospace" text-anchor="end">TEXT</text>
<text x="34" y="296" fill="#e6edf3" font-size="12" font-family="monospace">major</text>
<text x="214" y="296" fill="#8b949e" font-size="11" font-family="monospace" text-anchor="end">TEXT</text>
<text x="34" y="318" fill="#e6edf3" font-size="12" font-family="monospace">gpa</text>
<text x="214" y="318" fill="#8b949e" font-size="11" font-family="monospace" text-anchor="end">REAL</text>
<text x="34" y="340" fill="#e6edf3" font-size="12" font-family="monospace">enrolled_year</text>
<text x="214" y="340" fill="#8b949e" font-size="11" font-family="monospace" text-anchor="end">INTEGER</text>
</svg>